{"asset":{"generator":"glTF-Transform v4.2.1","version":"2.0"},"accessors":[{"type":"SCALAR","componentType":5125,"count":300000,"bufferView":0,"byteOffset":0},{"type":"VEC3","componentType":5126,"count":55075,"max":[0.5001776218414307,0.844813346862793,0.44070082902908325],"min":[-0.5523467659950256,-0.9535199999809265,-0.4605206251144409],"bufferView":1,"byteOffset":0},{"type":"VEC2","componentType":5126,"count":55075,"bufferView":1,"byteOffset":12},{"type":"VEC3","componentType":5126,"count":55075,"bufferView":1,"byteOffset":20}],"bufferViews":[{"buffer":0,"byteOffset":0,"byteLength":1200000,"target":34963},{"buffer":0,"byteOffset":1200000,"byteLength":1762400,"byteStride":32,"target":34962}],"samplers":[{"wrapS":10497,"wrapT":10497}],"textures":[{"source":1,"sampler":0}],"images":[{"mimeType":"image/png","uri":"f11c09a5_1.png"},{"mimeType":"image/jpeg","uri":"baseColor_1.jpg"}],"buffers":[{"uri":"f11c09a5.bin","byteLength":2962400}],"materials":[{"name":"mvadapter_material_caf0930f-92ef-45d3-94d5-9a0d610ba6a0-e1_textured.glb","pbrMetallicRoughness":{"roughnessFactor":0.9,"metallicFactor":0,"baseColorTexture":{"index":0}}}],"meshes":[{"name":"mvadapter_mesh_caf0930f-92ef-45d3-94d5-9a0d610ba6a0-e1_textured.glb","primitives":[{"attributes":{"POSITION":1,"NORMAL":3,"TEXCOORD_0":2},"mode":4,"material":0,"indices":0}]}],"nodes":[{"name":"mvadapter_node_caf0930f-92ef-45d3-94d5-9a0d610ba6a0-e1_textured.glb","children":[1]},{"name":"geometry_0","mesh":0}],"scenes":[{"nodes":[0]}],"scene":0}