{"asset":{"generator":"glTF-Transform v4.2.1","version":"2.0"},"accessors":[{"type":"SCALAR","componentType":5125,"count":299994,"bufferView":0,"byteOffset":0},{"type":"VEC3","componentType":5126,"count":56703,"max":[0.9228835701942444,0.9131820797920227,0.5430716276168823],"min":[-0.9503129720687866,-0.9541032910346985,-0.5859512686729431],"bufferView":1,"byteOffset":0},{"type":"VEC2","componentType":5126,"count":56703,"bufferView":1,"byteOffset":12},{"type":"VEC3","componentType":5126,"count":56703,"bufferView":1,"byteOffset":20}],"bufferViews":[{"buffer":0,"byteOffset":0,"byteLength":1199976,"target":34963},{"buffer":0,"byteOffset":1199976,"byteLength":1814496,"byteStride":32,"target":34962}],"samplers":[{"wrapS":10497,"wrapT":10497}],"textures":[{"source":1,"sampler":0}],"images":[{"mimeType":"image/png","uri":"nosebleed_1.png"},{"mimeType":"image/jpeg","uri":"baseColor_1.jpg"}],"buffers":[{"uri":"nosebleed.bin","byteLength":3014472}],"materials":[{"name":"mvadapter_material_365bd8f9-74e3-46d0-b090-1ad2d0021b0c-e2_textured.glb","pbrMetallicRoughness":{"roughnessFactor":0.9,"metallicFactor":0,"baseColorTexture":{"index":0}}}],"meshes":[{"name":"mvadapter_mesh_365bd8f9-74e3-46d0-b090-1ad2d0021b0c-e2_textured.glb","primitives":[{"attributes":{"POSITION":1,"NORMAL":3,"TEXCOORD_0":2},"mode":4,"material":0,"indices":0}]}],"nodes":[{"name":"mvadapter_node_365bd8f9-74e3-46d0-b090-1ad2d0021b0c-e2_textured.glb","children":[1]},{"name":"geometry_0","mesh":0}],"scenes":[{"nodes":[0]}],"scene":0}