{"asset":{"generator":"glTF-Transform v4.2.1","version":"2.0"},"accessors":[{"type":"SCALAR","componentType":5125,"count":149994,"bufferView":0,"byteOffset":0},{"type":"VEC3","componentType":5126,"count":29476,"max":[0.4520794153213501,0.9204055666923523,0.33832818269729614],"min":[-0.4902993440628052,-0.9554976224899292,-0.37380003929138184],"bufferView":1,"byteOffset":0},{"type":"VEC2","componentType":5126,"count":29476,"bufferView":1,"byteOffset":12},{"type":"VEC3","componentType":5126,"count":29476,"bufferView":1,"byteOffset":20}],"bufferViews":[{"buffer":0,"byteOffset":0,"byteLength":599976,"target":34963},{"buffer":0,"byteOffset":599976,"byteLength":943232,"byteStride":32,"target":34962}],"samplers":[{"wrapS":10497,"wrapT":10497}],"textures":[{"source":1,"sampler":0}],"images":[{"mimeType":"image/png","uri":"arm_sling_1.png"},{"mimeType":"image/jpeg","uri":"baseColor_1.jpg"}],"buffers":[{"uri":"arm_sling.bin","byteLength":1543208}],"materials":[{"name":"mvadapter_material_3d4cbb43-1446-4480-a01b-bf975da94db8-e1_textured.glb","pbrMetallicRoughness":{"roughnessFactor":0.9,"metallicFactor":0,"baseColorTexture":{"index":0}}}],"meshes":[{"name":"mvadapter_mesh_3d4cbb43-1446-4480-a01b-bf975da94db8-e1_textured.glb","primitives":[{"attributes":{"POSITION":1,"NORMAL":3,"TEXCOORD_0":2},"mode":4,"material":0,"indices":0}]}],"nodes":[{"name":"mvadapter_node_3d4cbb43-1446-4480-a01b-bf975da94db8-e1_textured.glb","children":[1]},{"name":"geometry_0","mesh":0}],"scenes":[{"nodes":[0]}],"scene":0}