{"asset":{"generator":"glTF-Transform v4.2.1","version":"2.0"},"accessors":[{"type":"SCALAR","componentType":5125,"count":299994,"bufferView":0,"byteOffset":0},{"type":"VEC3","componentType":5126,"count":56334,"max":[0.5234242081642151,0.9206991195678711,0.7160804867744446],"min":[-0.5574777126312256,-0.9540704488754272,-0.7683290243148804],"bufferView":1,"byteOffset":0},{"type":"VEC2","componentType":5126,"count":56334,"bufferView":1,"byteOffset":12},{"type":"VEC3","componentType":5126,"count":56334,"bufferView":1,"byteOffset":20}],"bufferViews":[{"buffer":0,"byteOffset":0,"byteLength":1199976,"target":34963},{"buffer":0,"byteOffset":1199976,"byteLength":1802688,"byteStride":32,"target":34962}],"samplers":[{"wrapS":10497,"wrapT":10497}],"textures":[{"source":1,"sampler":0}],"images":[{"mimeType":"image/png","uri":"bfddf54e_1.png"},{"mimeType":"image/jpeg","uri":"baseColor_1.jpg"}],"buffers":[{"uri":"bfddf54e.bin","byteLength":3002664}],"materials":[{"name":"mvadapter_material_d3713909-8f5e-4381-b2ff-7b69d80f82a5-e2_textured.glb","pbrMetallicRoughness":{"roughnessFactor":0.9,"metallicFactor":0,"baseColorTexture":{"index":0}}}],"meshes":[{"name":"mvadapter_mesh_d3713909-8f5e-4381-b2ff-7b69d80f82a5-e2_textured.glb","primitives":[{"attributes":{"POSITION":1,"NORMAL":3,"TEXCOORD_0":2},"mode":4,"material":0,"indices":0}]}],"nodes":[{"name":"mvadapter_node_d3713909-8f5e-4381-b2ff-7b69d80f82a5-e2_textured.glb","children":[1]},{"name":"geometry_0","mesh":0}],"scenes":[{"nodes":[0]}],"scene":0}