{"asset":{"generator":"glTF-Transform v4.2.1","version":"2.0"},"accessors":[{"type":"SCALAR","componentType":5125,"count":150000,"bufferView":0,"byteOffset":0},{"type":"VEC3","componentType":5126,"count":29142,"max":[0.520717442035675,0.9205710291862488,0.24582523107528687],"min":[-0.5558086037635803,-0.9552191495895386,-0.31940582394599915],"bufferView":1,"byteOffset":0},{"type":"VEC2","componentType":5126,"count":29142,"bufferView":1,"byteOffset":12},{"type":"VEC3","componentType":5126,"count":29142,"bufferView":1,"byteOffset":20}],"bufferViews":[{"buffer":0,"byteOffset":0,"byteLength":600000,"target":34963},{"buffer":0,"byteOffset":600000,"byteLength":932544,"byteStride":32,"target":34962}],"samplers":[{"wrapS":10497,"wrapT":10497}],"textures":[{"source":1,"sampler":0}],"images":[{"mimeType":"image/png","uri":"hand_bleed_1.png"},{"mimeType":"image/jpeg","uri":"baseColor_1.jpg"}],"buffers":[{"uri":"hand_bleed.bin","byteLength":1532544}],"materials":[{"name":"mvadapter_material_923d35f8-5b51-491d-8b06-8df4bf081a08-e1_textured.glb","pbrMetallicRoughness":{"roughnessFactor":0.9,"metallicFactor":0,"baseColorTexture":{"index":0}}}],"meshes":[{"name":"mvadapter_mesh_923d35f8-5b51-491d-8b06-8df4bf081a08-e1_textured.glb","primitives":[{"attributes":{"POSITION":1,"NORMAL":3,"TEXCOORD_0":2},"mode":4,"material":0,"indices":0}]}],"nodes":[{"name":"mvadapter_node_923d35f8-5b51-491d-8b06-8df4bf081a08-e1_textured.glb","children":[1]},{"name":"geometry_0","mesh":0}],"scenes":[{"nodes":[0]}],"scene":0}