{"asset":{"generator":"glTF-Transform v4.2.1","version":"2.0"},"accessors":[{"type":"SCALAR","componentType":5125,"count":150000,"bufferView":0,"byteOffset":0},{"type":"VEC3","componentType":5126,"count":29146,"max":[0.699073851108551,0.9207626581192017,0.6351428031921387],"min":[-0.7313026189804077,-0.9535053968429565,-0.6662264466285706],"bufferView":1,"byteOffset":0},{"type":"VEC2","componentType":5126,"count":29146,"bufferView":1,"byteOffset":12},{"type":"VEC3","componentType":5126,"count":29146,"bufferView":1,"byteOffset":20}],"bufferViews":[{"buffer":0,"byteOffset":0,"byteLength":600000,"target":34963},{"buffer":0,"byteOffset":600000,"byteLength":932672,"byteStride":32,"target":34962}],"samplers":[{"wrapS":10497,"wrapT":10497}],"textures":[{"source":1,"sampler":0}],"images":[{"mimeType":"image/png","uri":"leg_sprain_1.png"},{"mimeType":"image/jpeg","uri":"baseColor_1.jpg"}],"buffers":[{"uri":"leg_sprain.bin","byteLength":1532672}],"materials":[{"name":"mvadapter_material_8d42c6bf-7c49-4ff3-b20a-d1922c39e4eb-e1_textured.glb","pbrMetallicRoughness":{"roughnessFactor":0.9,"metallicFactor":0,"baseColorTexture":{"index":0}}}],"meshes":[{"name":"mvadapter_mesh_8d42c6bf-7c49-4ff3-b20a-d1922c39e4eb-e1_textured.glb","primitives":[{"attributes":{"POSITION":1,"NORMAL":3,"TEXCOORD_0":2},"mode":4,"material":0,"indices":0}]}],"nodes":[{"name":"mvadapter_node_8d42c6bf-7c49-4ff3-b20a-d1922c39e4eb-e1_textured.glb","children":[1]},{"name":"geometry_0","mesh":0}],"scenes":[{"nodes":[0]}],"scene":0}